Coordinates
version=1
nRows=15
nColumns=38
inDegrees=yes

Units are S.I. units (second, meters, Newtons, ...)
Angles are in degrees.

endheader
time	pelvis_tilt	pelvis_list	pelvis_rotation	pelvis_tx	pelvis_ty	pelvis_tz	hip_flexion_r	hip_adduction_r	hip_rotation_r	knee_angle_r	ankle_angle_r	subtalar_angle_r	mtp_angle_r	hip_flexion_l	hip_adduction_l	hip_rotation_l	knee_angle_l	ankle_angle_l	subtalar_angle_l	mtp_angle_l	lumbar_extension	lumbar_bending	lumbar_rotation	arm_flex_r	arm_add_r	arm_rot_r	elbow_flex_r	pro_sup_r	wrist_flex_r	wrist_dev_r	arm_flex_l	arm_add_l	arm_rot_l	elbow_flex_l	pro_sup_l	wrist_flex_l	wrist_dev_l
      4.89000000	      1.75206769	     -4.98809407	      3.74791711	      0.00429787	      0.85450299	      2.59403071	     22.01079717	      6.22424981	     -6.61250373	    -21.30495510	     -2.26453579	      0.00000000	      0.00000000	     -8.17532328	     -7.90819698	      0.64721095	    -43.94095354	    -31.42124879	      0.00000000	      0.00000000	     -5.90421749	      5.81910273	     -3.55327751	     -1.56422714	    -12.57122822	     -6.98648406	      2.17091566	    107.44915327	      0.00000000	      0.00000000	      7.22945158	    -13.91977925	     -3.52860056	     48.29641882	     93.98646371	      0.00000000	      0.00000000
      4.90000000	      1.93145196	     -5.59293144	      3.69287367	      0.00414935	      0.85621323	      2.59544356	     21.04688642	      7.17478822	     -5.84814265	    -21.63871926	     -1.01633579	      0.00000000	      0.00000000	     -5.81623101	     -8.55458445	      0.96224578	    -48.07700034	    -32.11208508	      0.00000000	      0.00000000	     -6.18533480	      6.29684234	     -3.21042543	     -0.84019543	    -12.53615042	     -6.62851305	      2.61764699	    106.82541567	      0.00000000	      0.00000000	      6.82084870	    -13.68707348	     -3.36488340	     48.23272589	     93.75529359	      0.00000000	      0.00000000
      4.91000000	      2.07175828	     -6.01942712	      3.72967313	      0.00369551	      0.85805834	      2.59659130	     19.98739844	      7.87517784	     -5.38640117	    -21.71475303	      0.06648419	      0.00000000	      0.00000000	     -3.42925252	     -8.99593432	      1.29484227	    -51.90388690	    -31.27766477	      0.00000000	      0.00000000	     -6.43178275	      6.58986449	     -2.91276083	     -0.09476438	    -12.47254919	     -6.24623447	      3.12889372	    106.08682163	      0.00000000	      0.00000000	      6.51088569	    -13.45906415	     -3.08270048	     47.89752499	     93.54279345	      0.00000000	      0.00000000
      4.92000000	      2.16024726	     -6.25232619	      3.87112832	      0.00307753	      0.85999494	      2.59749109	     18.88819712	      8.29303404	     -5.22023915	    -21.60831903	      1.01757392	      0.00000000	      0.00000000	     -1.01518126	     -9.19243188	      1.64516965	    -55.35831070	    -29.15379167	      0.00000000	      0.00000000	     -6.61975493	      6.68035805	     -2.67792587	      0.65357647	    -12.37879984	     -5.84850848	      3.69618629	    105.25235497	      0.00000000	      0.00000000	      6.29149355	    -13.24540296	     -2.69039411	     47.29600229	     93.41209358	      0.00000000	      0.00000000
      4.93000000	      2.19684887	     -6.29491048	      4.10732544	      0.00231310	      0.86196604	      2.59815607	     17.77724655	      8.43630808	     -5.31880891	    -21.36883925	      1.87855394	      0.00000000	      0.00000000	      1.44278585	     -9.12164751	      2.03281938	    -58.38237748	    -26.23565222	      0.00000000	      0.00000000	     -6.73291390	      6.57573113	     -2.50971221	      1.39533813	    -12.25753926	     -5.44462357	      4.31058639	    104.34575557	      0.00000000	      0.00000000	      6.14101072	    -13.06247274	     -2.20122466	     46.46750555	     93.41248000	      0.00000000	      0.00000000
      4.94000000	      2.18156109	     -6.16657079	      4.40559034	      0.00139065	      0.86396243	      2.59858167	     16.66299306	      8.35062768	     -5.63390472	    -21.01429333	      2.67622085	      0.00000000	      0.00000000	      3.93836441	     -8.79213842	      2.47193513	    -60.92639008	    -23.09235034	      0.00000000	      0.00000000	     -6.76416400	      6.30395055	     -2.39811798	      2.13217796	    -12.11583031	     -5.04270883	      4.96457813	    103.39251218	      0.00000000	      0.00000000	      6.02734088	    -12.92341432	     -1.63506609	     45.46771929	     93.56423044	      0.00000000	      0.00000000
      4.95000000	      2.10798353	     -5.90667976	      4.72523805	      0.00045391	      0.86597704	      2.59884656	     15.54369330	      8.10392261	     -6.10123732	    -20.54598421	      3.41585346	      0.00000000	      0.00000000	      6.42565956	     -8.24306782	      2.94462158	    -62.96611272	    -20.16555660	      0.00000000	      0.00000000	     -6.72050222	      5.90387107	     -2.32537983	      2.87231389	    -11.96110973	     -4.64650384	      5.65248341	    102.41850603	      0.00000000	      0.00000000	      5.91398242	    -12.82861162	     -1.01830240	     44.35050473	     93.85087413	      0.00000000	      0.00000000
      4.96000000	      1.97760837	     -5.56661958	      5.03461449	     -0.00043089	      0.86800577	      2.59906076	     14.41122762	      7.76926375	     -6.64380999	    -19.96573662	      4.08756416	      0.00000000	      0.00000000	      8.84558856	     -7.53989329	      3.39687277	    -64.50876838	    -17.65516376	      0.00000000	      0.00000000	     -6.62277262	      5.41606051	     -2.27013337	      3.62486294	    -11.79898238	     -4.25137834	      6.37096543	    101.45002160	      0.00000000	      0.00000000	      5.76738173	    -12.76646928	     -0.38206206	     43.15788022	     94.22342274	      0.00000000	      0.00000000
      4.97000000	      1.80995826	     -5.19176475	      5.31402944	     -0.00135482	      0.87006561	      2.59928496	     13.25084024	      7.41010406	     -7.18173762	    -19.28467644	      4.67813766	      0.00000000	      0.00000000	     11.16096514	     -6.76740975	      3.76025633	    -65.57988476	    -15.53351115	      0.00000000	      0.00000000	     -6.49835563	      4.87953201	     -2.20965020	      4.39446510	    -11.63313571	     -3.84193765	      7.11940860	    100.51327841	      0.00000000	      0.00000000	      5.56498820	    -12.72308313	      0.24107997	     41.92074995	     94.61516870	      0.00000000	      0.00000000
      4.98000000	      1.63119358	     -4.81331808	      5.54413867	     -0.00226681	      0.87207714	      2.59953227	     12.04670006	      7.07269918	     -7.64604942	    -18.52196624	      5.18070725	      0.00000000	      0.00000000	     13.36075347	     -6.01056990	      3.98088237	    -66.20730844	    -13.65213379	      0.00000000	      0.00000000	     -6.37205790	      4.32975759	     -2.12258254	      5.17865841	    -11.46559462	     -3.39373952	      7.90088876	     99.63131568	      0.00000000	      0.00000000	      5.29765201	    -12.68774728	      0.82229676	     40.66465142	     94.96052661	      0.00000000	      0.00000000
      4.99000000	      1.45993543	     -4.45295801	      5.69871982	     -0.00307392	      0.87393603	      2.59981191	     10.79722422	      6.78686725	     -7.99007810	    -17.69850340	      5.59868770	      0.00000000	      0.00000000	     15.43787811	     -5.32902574	      4.03684579	    -66.41498621	    -11.86482795	      0.00000000	      0.00000000	     -6.25902970	      3.79328960	     -1.99100319	      5.97177583	    -11.29758196	     -2.87984003	      8.72497360	     98.81781479	      0.00000000	      0.00000000	      4.96480996	    -12.65188440	      1.34073396	     39.41436940	     95.21126996	      0.00000000	      0.00000000
      5.00000000	      1.30375784	     -4.12506701	      5.75199719	     -0.00385681	      0.87562058	      2.60018104	      9.52040281	      6.56514781	     -8.19343712	    -16.83650867	      5.94526213	      0.00000000	      0.00000000	     17.37529987	     -4.74861844	      3.94026087	    -66.22110240	    -10.10297208	      0.00000000	      0.00000000	     -6.16332449	      3.28156961	     -1.80139257	      6.77058373	    -11.13131013	     -2.27988990	      9.60952551	     98.07032995	      0.00000000	      0.00000000	      4.56770246	    -12.61116329	      1.78261213	     38.19361998	     95.34595311	      0.00000000	      0.00000000
      5.01000000	      1.16138139	     -3.83114898	      5.69129987	     -0.00467497	      0.87712677	      2.60069264	      8.24100367	      6.39945455	     -8.25937261	    -15.96446962	      6.24171555	      0.00000000	      0.00000000	     19.15450949	     -4.27283716	      3.72695973	    -65.63437328	     -8.38295013	      0.00000000	      0.00000000	     -6.08432039	      2.79008422	     -1.54633040	      7.57295574	    -10.97115913	     -1.58696967	     10.57736603	     97.36752481	      0.00000000	      0.00000000	      4.10366336	    -12.57013830	      2.13657428	     37.01974499	     95.37094005	      0.00000000	      0.00000000
      5.02000000	      1.02712015	     -3.55908589	      5.52405343	     -0.00549873	      0.87844614	      2.60133972	      6.97675513	      6.26629989	     -8.20975440	    -15.11523019	      6.51630708	      0.00000000	      0.00000000	     20.76804873	     -3.89229983	      3.43620760	    -64.65231820	     -6.76780918	      0.00000000	      0.00000000	     -6.02482635	      2.30600330	     -1.22871195	      8.37144102	    -10.82235817	     -0.80807810	     11.64929808	     96.67383912	      0.00000000	      0.00000000	      3.56739524	    -12.53827696	      2.39110482	     35.90066267	     95.31482670	      0.00000000	      0.00000000
      5.03000000	      0.89890536	     -3.29325143	      5.27412169	     -0.00629394	      0.87954028	      2.60209222	      5.73442935	      6.13911557	     -8.07942318	    -14.31426717	      6.80157846	      0.00000000	      0.00000000	     22.21880420	     -3.58589689	      3.09217196	    -63.26697957	     -5.32055051	      0.00000000	      0.00000000	     -5.99167043	      1.81866624	     -0.86520148	      9.15281810	    -10.68853854	      0.04099924	     12.83952463	     95.95024873	      0.00000000	      0.00000000	      2.96077505	    -12.51773620	      2.53670656	     34.83782743	     95.22016706	      0.00000000	      0.00000000
